<?xml version="1.0" standalone="no"?>
<!DOCTYPE svg PUBLIC "-//W3C//DTD SVG 20010904//EN"
 "http://www.w3.org/TR/2001/REC-SVG-20010904/DTD/svg10.dtd">
<svg version="1.0" xmlns="http://www.w3.org/2000/svg"
 width="100" height="100" viewBox="0 0 1440.000000 1440.000000"
 preserveAspectRatio="xMidYMid meet">
<metadata>
Created by potrace 1.15, written by Peter Selinger 2001-2017
</metadata>
<g transform="translate(0.000000,1440.000000) scale(0.100000,-0.100000)"
fill="#000000" stroke="none">
<path d="M4990 11514 c0 -4 6 -15 14 -23 31 -35 146 -282 179 -386 118 -366
165 -711 153 -1127 -7 -268 -9 -291 -42 -493 -69 -429 -204 -786 -419 -1110
-239 -360 -517 -612 -823 -745 -53 -24 -103 -47 -110 -53 -35 -28 30 -32 598
-33 566 -1 718 -5 1075 -24 503 -28 859 -67 1420 -155 307 -48 395 -57 401
-40 3 7 -11 77 -30 156 -42 168 -59 261 -80 419 -8 63 -21 160 -28 215 -20
153 -17 892 5 1100 9 88 21 207 27 265 6 58 22 178 36 268 13 90 24 167 24
173 0 5 -53 44 -117 86 -242 156 -1423 947 -1653 1107 -142 98 -352 240 -487
328 -101 65 -143 87 -143 72z"/>
<path d="M7726 10451 c-9 -15 32 -126 105 -283 38 -82 69 -151 69 -153 0 -5
194 -423 257 -555 30 -63 84 -176 118 -250 34 -74 84 -180 110 -235 26 -55 60
-127 75 -160 15 -33 74 -157 130 -275 56 -118 111 -235 122 -260 52 -112 224
-469 244 -505 26 -47 42 -53 149 -54 133 -2 519 -52 760 -100 55 -10 152 -29
215 -41 99 -19 433 -94 466 -105 6 -2 16 0 22 4 6 4 -12 30 -46 66 -118 127
-655 684 -807 839 -11 12 -61 64 -110 116 -49 52 -130 138 -180 190 -50 52
-196 205 -325 340 -328 344 -394 412 -495 520 -50 52 -137 145 -195 205 -58
61 -200 209 -315 330 -292 306 -363 376 -369 366z"/>
<path d="M7560 9980 c0 -11 -4 -20 -9 -20 -4 0 -11 -25 -14 -57 -3 -31 -10
-59 -15 -62 -18 -11 -22 -302 -24 -1484 -1 -653 -5 -1190 -8 -1192 -22 -14
-906 -8 -1105 6 -210 16 -491 32 -601 34 -61 1 -117 6 -124 10 -7 4 -16 2 -20
-5 -5 -9 -9 -9 -14 -1 -4 6 -37 11 -77 11 -62 0 -69 -2 -69 -20 0 -13 -7 -20
-20 -20 -11 0 -20 -4 -20 -10 0 -5 9 -10 20 -10 11 0 20 -4 20 -10 0 -5 -18
-10 -40 -10 -33 0 -40 -3 -40 -20 0 -17 7 -20 41 -20 24 0 38 -4 34 -10 -4 -6
9 -10 32 -10 22 0 44 -5 50 -11 12 -12 112 -30 193 -35 47 -2 154 -15 170 -19
3 -1 57 -5 120 -10 63 -4 124 -10 135 -12 28 -5 108 -12 270 -23 667 -48 1241
-40 1810 25 509 58 575 66 655 75 47 6 114 15 150 21 191 28 715 79 814 79 30
0 57 -4 61 -10 9 -15 -79 -35 -405 -94 -107 -20 -245 -47 -306 -60 -61 -14
-205 -41 -320 -61 -115 -20 -274 -47 -354 -61 -704 -122 -1403 -135 -2325 -45
-55 6 -125 13 -155 16 -67 6 -133 11 -310 25 -74 6 -155 12 -179 14 -44 4 -44
4 -22 -13 12 -9 20 -19 17 -22 -9 -8 -76 2 -76 12 0 5 5 9 10 9 6 0 10 5 10
10 0 6 -18 10 -40 10 -38 0 -40 -2 -40 -30 0 -23 -4 -30 -20 -30 -13 0 -20 -7
-20 -20 0 -13 7 -20 20 -20 11 0 20 -4 20 -9 0 -5 8 -8 18 -7 9 0 17 -6 17
-14 0 -11 -10 -15 -37 -13 -58 3 -45 -15 15 -20 100 -9 158 -17 168 -23 6 -3
50 -10 97 -14 48 -5 98 -11 112 -14 14 -4 61 -8 105 -11 44 -2 103 -8 130 -14
64 -12 205 -29 320 -37 50 -4 97 -8 105 -10 8 -1 51 -5 95 -9 44 -3 98 -8 120
-10 247 -27 980 -30 1185 -6 47 5 137 15 202 21 197 19 424 60 878 160 386 84
747 150 826 150 36 0 36 -1 20 -19 -9 -10 -27 -21 -39 -24 -12 -3 -67 -18
-122 -35 -217 -66 -557 -159 -660 -181 -570 -124 -653 -141 -840 -172 -162
-26 -254 -39 -510 -69 -325 -39 -777 -41 -1145 -4 -205 20 -527 63 -710 95
-63 11 -214 37 -335 59 -121 21 -269 44 -330 52 -145 17 -598 17 -730 0 -229
-31 -590 -121 -568 -143 5 -5 34 -4 69 3 97 21 656 17 824 -5 265 -35 450 -68
755 -132 94 -20 240 -49 325 -64 145 -27 207 -35 435 -62 117 -13 1000 -31
1175 -24 162 7 412 30 570 51 174 24 684 128 870 178 91 24 221 58 290 76 69
17 158 40 198 51 39 10 107 28 150 39 42 12 93 25 112 30 19 6 78 21 130 36
121 32 151 44 170 63 8 9 47 54 87 101 83 99 365 381 438 438 59 45 80 70 71
79 -9 9 -448 5 -681 -7 -334 -17 -707 -41 -930 -61 -66 -5 -169 -14 -230 -19
-60 -5 -157 -14 -215 -20 -416 -41 -788 -66 -800 -54 -5 5 -11 387 -15 849 -9
1355 -14 1784 -21 1883 -6 80 -9 92 -25 92 -12 0 -19 -7 -19 -20z m27 -132
c-3 -7 -5 -2 -5 12 0 14 2 19 5 13 2 -7 2 -19 0 -25z m-2042 -3088 c4 -6 -6
-10 -22 -10 -22 0 -25 2 -13 10 19 12 27 12 35 0z"/>
<path d="M7920 9429 c0 -17 4 -28 10 -24 6 3 10 17 10 31 0 13 -4 24 -10 24
-5 0 -10 -14 -10 -31z"/>
<path d="M7977 9366 c-3 -8 1 -17 9 -20 9 -4 14 1 14 14 0 23 -15 27 -23 6z"/>
<path d="M7915 9341 c-3 -6 -1 -20 5 -32 7 -11 8 -24 4 -27 -4 -4 -9 -1 -11 6
-3 6 -11 12 -18 12 -7 0 -16 6 -19 13 -3 8 -11 5 -24 -10 -11 -13 -27 -23 -36
-23 -9 0 -16 -8 -16 -20 0 -15 -7 -20 -24 -20 -22 0 -26 -6 -32 -45 -3 -25 -1
-65 5 -90 14 -55 14 -105 0 -105 -7 0 -10 -62 -9 -187 1 -104 0 -190 0 -193
-1 -3 -4 -287 -6 -632 -5 -729 -19 -653 122 -638 49 5 163 16 254 25 91 9 203
20 250 25 47 5 130 14 185 19 166 18 380 43 383 45 1 2 -41 90 -94 197 -85
171 -140 284 -257 529 -17 36 -35 67 -39 68 -4 2 -8 8 -8 12 0 10 -71 160 -94
200 -8 14 -21 40 -28 58 -7 17 -16 32 -20 32 -5 0 -8 7 -8 16 0 15 -47 123
-71 164 -8 15 -32 66 -71 153 -12 26 -25 47 -30 47 -4 0 -8 6 -8 13 1 12 -60
137 -70 147 -3 3 -7 16 -7 28 -1 13 -9 29 -18 36 -9 6 -27 39 -41 71 -13 33
-28 61 -33 63 -5 2 -19 12 -31 22 -12 10 -28 16 -36 13 -8 -3 -21 0 -28 6 -10
8 -16 9 -21 2z m-55 -105 c0 -11 -19 -15 -25 -6 -3 5 1 10 9 10 9 0 16 -2 16
-4z m210 -48 c0 -18 -2 -20 -9 -8 -6 8 -7 18 -5 22 9 14 14 9 14 -14z"/>
<path d="M5518 7063 c7 -3 16 -2 19 1 4 3 -2 6 -13 5 -11 0 -14 -3 -6 -6z"/>
<path d="M5360 6890 c0 -5 5 -10 10 -10 6 0 10 5 10 10 0 6 -4 10 -10 10 -5 0
-10 -4 -10 -10z"/>
<path d="M5240 6830 c0 -5 9 -10 20 -10 11 0 20 5 20 10 0 6 -9 10 -20 10 -11
0 -20 -4 -20 -10z"/>
<path d="M5208 6803 c6 -2 18 -2 25 0 6 3 1 5 -13 5 -14 0 -19 -2 -12 -5z"/>
<path d="M10075 6600 c-169 -20 -474 -90 -935 -215 -615 -167 -1034 -251
-1462 -292 -150 -15 -284 -18 -738 -18 -550 0 -758 8 -1034 40 -66 8 -159 17
-206 20 -76 5 -82 4 -60 -8 14 -8 50 -19 80 -25 71 -15 362 -80 418 -93 468
-108 1080 -165 1509 -141 234 14 376 30 573 66 284 52 415 90 1120 326 403
135 549 176 740 209 231 40 500 52 699 30 54 -6 110 -9 123 -7 38 6 -54 42
-168 67 -55 12 -121 26 -149 32 -65 15 -407 20 -510 9z"/>
<path d="M8625 5490 c-141 -22 -278 -117 -338 -237 -77 -152 -66 -364 24 -505
84 -130 253 -205 439 -195 204 11 358 116 426 292 23 59 27 86 28 175 0 60 -5
122 -13 145 -41 129 -116 217 -235 275 -111 55 -204 69 -331 50z m211 -225
c50 -25 95 -76 122 -138 15 -35 16 -158 1 -208 -38 -126 -197 -200 -329 -153
-63 22 -130 92 -148 152 -15 51 -15 153 0 206 15 51 99 137 148 153 65 21 151
16 206 -12z"/>
<path d="M3309 5480 c-6 -4 -8 -177 -7 -456 l3 -449 105 0 105 0 3 133 3 133
71 -3 71 -3 68 -100 c38 -55 82 -115 99 -132 l31 -33 120 0 c102 0 120 2 116
15 -4 8 -48 71 -99 141 -121 165 -116 156 -99 161 40 15 118 93 143 143 50
101 32 262 -37 339 -42 46 -122 88 -195 101 -61 11 -485 19 -501 10z m456
-204 c70 -29 99 -133 53 -191 -32 -41 -76 -55 -177 -55 -49 0 -96 3 -105 6
-13 5 -16 26 -16 123 0 65 3 121 7 124 13 14 203 7 238 -7z"/>
<path d="M4230 5477 c0 -15 124 -230 241 -417 l84 -135 5 -175 5 -175 105 0
105 0 5 165 c6 187 2 176 112 346 116 178 238 375 238 385 0 6 -48 9 -121 7
l-121 -3 -103 -169 c-56 -94 -106 -171 -112 -173 -5 -2 -39 52 -76 119 -36 68
-81 146 -99 173 -31 46 -37 51 -83 57 -90 12 -185 9 -185 -5z"/>
<path d="M6403 5473 c-3 -7 58 -108 136 -225 78 -116 141 -221 141 -232 0 -12
-27 -59 -60 -106 -139 -199 -210 -309 -210 -324 0 -14 16 -16 110 -16 l110 0
86 130 c47 71 90 132 94 135 8 5 40 -40 122 -170 14 -22 37 -52 51 -67 26 -27
28 -28 142 -28 89 0 115 3 115 13 0 8 -19 40 -42 73 -23 32 -63 91 -91 129
-27 39 -74 107 -104 152 l-55 82 18 30 c11 17 79 116 152 222 72 105 132 195
132 200 0 11 -230 12 -245 1 -6 -4 -24 -29 -40 -57 -45 -78 -137 -215 -145
-215 -4 0 -40 52 -81 116 -110 174 -95 162 -223 166 -81 3 -110 0 -113 -9z"/>
<path d="M9384 5479 c-10 -15 -18 -850 -9 -887 5 -22 8 -23 113 -20 l107 3 3
125 c1 68 7 129 12 134 13 13 121 8 138 -6 7 -7 43 -55 79 -107 110 -160 97
-151 235 -151 140 0 141 1 71 93 -80 106 -143 197 -143 207 0 5 17 21 38 34
107 67 158 192 132 322 -21 109 -65 171 -153 213 -68 33 -130 40 -383 48 -192
5 -233 4 -240 -8z m473 -206 c76 -36 89 -147 23 -205 -29 -27 -34 -28 -149
-28 -115 0 -119 1 -125 23 -8 30 -8 212 1 220 3 4 53 7 111 7 77 0 113 -4 139
-17z"/>
<path d="M10301 5476 c-8 -9 -11 -44 -9 -98 l3 -83 155 -5 155 -5 3 -344 c1
-234 6 -349 13 -358 16 -18 218 -19 221 0 1 6 2 167 2 357 l1 345 150 5 150 5
0 95 0 95 -416 3 c-349 2 -418 0 -428 -12z"/>
<path d="M5590 5025 l0 -455 349 0 348 0 7 53 c10 85 7 114 -10 121 -9 3 -84
7 -167 7 -84 1 -186 4 -227 8 l-75 6 -3 65 c-2 35 0 75 3 87 l5 23 209 0 c161
0 211 3 220 13 10 12 7 119 -4 155 -3 9 -55 12 -215 12 l-210 0 0 80 c0 44 1
81 3 81 1 1 103 5 227 8 l225 6 5 78 c3 43 1 85 -3 93 -7 12 -64 14 -347 14
l-340 0 0 -455z"/>
<path d="M7352 5028 l3 -453 110 0 110 0 5 125 5 125 130 6 c148 7 168 11 246
50 72 36 125 97 146 168 21 74 14 201 -14 256 -30 58 -100 119 -169 146 -55
21 -76 23 -317 27 l-257 4 2 -454z m450 252 c53 -15 88 -61 88 -116 0 -60 -21
-97 -66 -119 -39 -18 -175 -32 -218 -21 l-26 6 0 124 c0 67 3 126 7 129 10 11
174 8 215 -3z"/>
<path d="M5775 4110 c-156 -25 -241 -186 -190 -358 20 -67 62 -114 127 -142
122 -52 271 5 333 129 28 55 23 170 -11 238 -46 96 -154 151 -259 133z m135
-81 c19 -11 47 -36 60 -56 22 -32 25 -47 25 -123 0 -80 -2 -89 -29 -124 -35
-47 -75 -72 -127 -80 -81 -13 -153 24 -190 97 -27 53 -23 152 9 217 44 92 157
122 252 69z"/>
<path d="M4901 4095 c-51 -16 -104 -63 -134 -120 -32 -58 -31 -202 0 -261 47
-89 142 -134 248 -118 57 8 140 61 140 89 0 31 -30 29 -76 -4 -36 -26 -51 -31
-101 -31 -62 0 -88 9 -126 44 -80 72 -66 254 24 323 60 45 168 44 224 -3 22
-19 37 -24 55 -20 14 4 25 10 25 15 0 23 -46 62 -96 80 -63 24 -120 26 -183 6z"/>
<path d="M7280 4101 l-35 -6 0 -245 0 -245 22 -3 c26 -4 32 12 35 103 l3 60
91 6 c119 9 175 33 203 88 12 22 21 58 21 79 0 51 -46 123 -93 145 -38 18
-185 29 -247 18z m193 -62 c51 -14 78 -58 75 -119 -3 -37 -8 -47 -34 -62 -30
-17 -177 -40 -201 -30 -18 6 -18 193 -1 210 15 15 110 16 161 1z"/>
<path d="M8757 4103 c-4 -3 -7 -113 -7 -243 0 -247 4 -269 42 -249 16 9 18 25
18 199 0 105 3 190 8 190 4 0 24 -26 44 -57 20 -32 78 -119 128 -193 93 -139
123 -166 154 -140 14 10 16 45 16 226 0 225 -6 264 -40 264 -21 0 -21 -4 -20
-187 1 -104 1 -192 1 -197 -1 -6 -60 73 -131 175 -72 101 -140 192 -151 202
-22 17 -50 22 -62 10z"/>
<path d="M9499 4099 c-12 -7 -12 -12 0 -31 8 -13 46 -77 85 -143 l71 -120 5
-100 c5 -99 5 -100 30 -100 25 0 25 2 31 95 3 52 9 104 14 115 5 11 44 77 87
148 43 70 78 132 78 137 0 19 -47 10 -67 -12 -23 -26 -103 -150 -128 -199
l-17 -31 -67 117 c-66 116 -92 143 -122 124z"/>
<path d="M6357 4024 c-4 -42 -7 -150 -7 -239 0 -170 6 -193 42 -174 16 9 18
25 18 190 0 185 9 217 30 113 11 -50 25 -88 81 -211 11 -24 24 -54 29 -68 7
-19 17 -25 39 -25 25 0 31 6 51 53 51 121 133 297 139 297 3 0 6 -78 6 -172
l0 -173 26 -3 26 -3 6 98 c4 54 7 164 7 246 l0 147 -35 0 c-42 0 -51 -12 -99
-135 -39 -101 -85 -208 -104 -243 -10 -18 -17 -21 -26 -12 -16 12 -62 135
-101 265 -37 121 -36 120 -82 123 l-40 3 -6 -77z"/>
<path d="M8043 4088 c-18 -23 -146 -328 -181 -430 -18 -53 -14 -63 21 -54 18
4 30 20 46 59 l22 54 110 6 c61 3 120 2 131 -2 12 -4 28 -27 38 -52 19 -48 63
-80 83 -60 8 8 -1 36 -32 103 -24 51 -65 152 -93 223 -28 72 -54 138 -59 148
-11 20 -71 24 -86 5z m97 -188 c0 -4 9 -28 21 -54 11 -25 17 -51 14 -56 -3 -6
-49 -10 -102 -10 l-95 0 7 27 c3 15 15 45 25 68 10 22 30 67 45 100 l27 60 29
-64 c16 -35 29 -67 29 -71z"/>
<path d="M3343 3880 c-24 -10 -32 -53 -14 -65 14 -8 775 -10 789 -1 16 9 15
49 0 64 -15 15 -740 16 -775 2z"/>
<path d="M10403 3883 c-8 -2 -13 -22 -13 -44 l0 -39 378 0 c281 0 381 3 390
12 17 17 15 44 -4 62 -13 14 -61 16 -377 15 -199 0 -368 -3 -374 -6z"/>
</g>
</svg>
